<svg xmlns="http://www.w3.org/2000/svg" version="1.1" xmlns:xlink="http://www.w3.org/1999/xlink" xmlns:svgjs="http://svgjs.dev/svgjs" width="1000" height="1000" viewBox="0 0 1000 1000"><g transform="matrix(1,0,0,1,-0.14221556886212738,-0.14221556886229791)"><svg viewBox="0 0 334 334" data-background-color="#ffffff" preserveAspectRatio="xMidYMid meet" height="1000" width="1000" xmlns="http://www.w3.org/2000/svg" xmlns:xlink="http://www.w3.org/1999/xlink"><g id="tight-bounds" transform="matrix(1,0,0,1,0.04749999999998522,0.04750000000001364)"><svg viewBox="0 0 333.90454557049503 333.90454557049503" height="333.90454557049503" width="333.90454557049503"><g><svg></svg></g><g><svg viewBox="0 0 333.90454557049503 333.90454557049503" height="333.90454557049503" width="333.90454557049503"><g><path d="M0 166.952c0-92.205 74.747-166.952 166.952-166.952 92.205 0 166.952 74.747 166.953 166.952 0 92.205-74.747 166.952-166.953 166.953-92.205 0-166.952-74.747-166.952-166.953zM166.952 316.63c82.665 0 149.677-67.013 149.678-149.678 0-82.665-67.013-149.677-149.678-149.677-82.665 0-149.677 67.013-149.677 149.677 0 82.665 67.013 149.677 149.677 149.678z" data-fill-palette-color="tertiary" fill="#454545" stroke="transparent"></path><ellipse rx="160.27418187383762" ry="160.27418187383762" cx="166.95227278524752" cy="166.95227278524752" fill="#454545" stroke="transparent" stroke-width="0" fill-opacity="1" data-fill-palette-color="tertiary"></ellipse></g><g transform="matrix(1,0,0,1,103.50189274291887,71.17305217166896)"><svg viewBox="0 0 126.9007600846573 191.55844122715712" height="191.55844122715712" width="126.9007600846573"><g><svg viewBox="0 0 126.9007600846573 191.55844122715712" height="191.55844122715712" width="126.9007600846573"><g><svg viewBox="0 0 126.9007600846573 191.55844122715712" height="191.55844122715712" width="126.9007600846573"><g><svg viewBox="0 0 126.9007600846573 191.55844122715712" height="191.55844122715712" width="126.9007600846573"><g id="textblocktransform"><svg viewBox="0 0 126.9007600846573 191.55844122715712" height="191.55844122715712" width="126.9007600846573" id="textblock"><g><svg viewBox="0 0 126.9007600846573 191.55844122715712" height="191.55844122715712" width="126.9007600846573"><g transform="matrix(1,0,0,1,0,0)"><svg width="126.9007600846573" viewBox="3.049999952316284 -35.099998474121094 23.650001525878906 35.69999694824219" height="191.55844122715712" data-palette-color="#ffde04"><path d="M16.6-35.1L16.6-35.1Q18.8-35.1 20.38-35 21.95-34.9 23.28-34.68 24.6-34.45 26-34.1L26-34.1 25.55-30.75Q24.05-30.9 22.78-31 21.5-31.1 20.05-31.15 18.6-31.2 16.6-31.2L16.6-31.2Q13.25-31.2 11.3-29.9 9.35-28.6 8.53-25.55 7.7-22.5 7.7-17.25L7.7-17.25Q7.7-12 8.53-8.95 9.35-5.9 11.3-4.6 13.25-3.3 16.6-3.3L16.6-3.3Q19.8-3.3 21.98-3.43 24.15-3.55 26.25-3.85L26.25-3.85 26.7-0.55Q24.55 0.05 22.28 0.33 20 0.6 16.6 0.6L16.6 0.6Q11.65 0.6 8.68-1.13 5.7-2.85 4.38-6.75 3.05-10.65 3.05-17.25L3.05-17.25Q3.05-23.85 4.38-27.75 5.7-31.65 8.68-33.38 11.65-35.1 16.6-35.1Z" opacity="1" transform="matrix(1,0,0,1,0,0)" fill="#ffde04" class="undefined-text-0" data-fill-palette-color="quaternary" id="text-0"></path></svg></g></svg></g></svg></g></svg></g><g></g></svg></g></svg></g></svg></g></svg></g><defs></defs></svg><rect width="333.90454557049503" height="333.90454557049503" fill="none" stroke="none" visibility="hidden"></rect></g></svg></g></svg>